<svg width="300" height="50" viewBox="0 0 300 50" fill="none" xmlns="http://www.w3.org/2000/svg">
<path fill-rule="evenodd" clip-rule="evenodd" d="M11.6981 49.5708C8.88564 47.2329 7.98731 44.4396 7.73162 40.7538C7.42386 36.3192 7.70229 31.3728 7.70445 26.8379C7.70744 20.3851 7.72162 8.67745 7.78555 7.76129C15.8261 7.73717 13.0306 7.7392 15.4814 7.73806C18.2016 7.73687 20.4031 7.59436 22.7488 8.31133C26.7872 9.54579 29.1958 12.4252 30.5228 16.3305C31.7695 19.9993 32.1927 26.5909 30.7196 30.263C28.5575 35.6536 23.6348 35.0269 19.8746 35.2124C19.7182 35.8477 19.7597 37.5506 19.8101 38.2582C19.8822 39.2706 20.174 39.9735 21.146 40.2197C22.2558 40.501 26.1742 40.286 27.3387 40.1084C31.1631 39.5254 33.9744 38.0285 35.8242 35.4992C42.0297 27.0145 41.0903 5.8192 25.1204 1.08122C23.5062 0.602279 21.4677 0.33576 19.2645 0.191396C12.9411 -0.223441 6.42168 0.163383 0.0729399 0.175952L0.0279974 24.5929C0.0194984 29.2174 -0.0748327 34.0727 0.138961 38.6754C0.319297 42.5601 1.22612 45.323 5.96441 47.653C7.05601 48.1897 10.311 49.551 11.6981 49.5708Z" fill="white"/>
<path fill-rule="evenodd" clip-rule="evenodd" d="M41.5063 21.6214C41.5063 34.2365 37.0024 42.553 24.0997 42.542C18.5672 42.5372 17.587 41.9976 17.5896 36.1295L17.592 14.9751C20.4093 14.8865 24.4989 14.7059 26.9712 15.8756C27.5212 16.1359 27.7771 16.4165 28.2453 16.5744C27.8412 14.8303 26.0345 12.7242 24.9407 11.8703C21.7265 9.36085 16.8486 9.96213 12.3205 9.96147L9.92637 9.99708C9.7856 17.7714 9.90398 26.8555 9.90398 34.8367C9.90398 37.5467 9.96659 40.3242 10.3402 42.8681C12.1413 50.5225 18.659 49.9925 24.674 49.992C38.8381 49.989 48.0607 41.7359 49.0631 28.2269C49.8067 18.2042 47.1388 9.08721 39.0877 4.052C37.2201 2.88386 33.1793 1.07021 30.504 0.876831C30.7915 1.29298 31.174 1.46045 31.6182 1.75427C31.9379 1.96567 32.4375 2.29892 32.7887 2.58765C38.4328 7.22873 41.5063 13.6942 41.5063 21.6214Z" fill="white"/>
<path d="M73.5349 38H65.059V11.8182H73.8034C76.3687 11.8182 78.5718 12.3423 80.4127 13.3906C82.2536 14.4304 83.6642 15.9261 84.6443 17.8778C85.6329 19.821 86.1272 22.152 86.1272 24.8707C86.1272 27.598 85.6286 29.9418 84.6315 31.902C83.6428 33.8622 82.211 35.3707 80.336 36.4276C78.461 37.4759 76.194 38 73.5349 38ZM69.0093 34.5483H73.3176C75.3119 34.5483 76.9695 34.1733 78.2906 33.4233C79.6116 32.6648 80.6002 31.5696 81.2565 30.1378C81.9127 28.6974 82.2409 26.9418 82.2409 24.8707C82.2409 22.8168 81.9127 21.0739 81.2565 19.642C80.6088 18.2102 79.6414 17.1236 78.3545 16.3821C77.0676 15.6406 75.4695 15.2699 73.5605 15.2699H69.0093V34.5483ZM97.632 38.3707C95.8763 38.3707 94.3635 38.0511 93.0937 37.4119C91.8323 36.7727 90.8607 35.9034 90.1789 34.804C89.4971 33.696 89.1562 32.4432 89.1562 31.0455C89.1562 29.9801 89.3777 29.0341 89.8209 28.2074C90.2641 27.3722 90.882 26.6009 91.6746 25.8935C92.4672 25.1861 93.3834 24.4744 94.4232 23.7585L98.642 20.7798C99.3579 20.3111 99.9161 19.8168 100.317 19.2969C100.717 18.7685 100.918 18.1165 100.918 17.3409C100.918 16.7273 100.653 16.1392 100.125 15.5767C99.5965 15.0142 98.8891 14.733 98.0027 14.733C97.3891 14.733 96.8479 14.8821 96.3792 15.1804C95.9189 15.4787 95.5567 15.8622 95.2925 16.331C95.0368 16.7912 94.909 17.277 94.909 17.7884C94.909 18.3849 95.0709 18.9858 95.3948 19.5909C95.7272 20.196 96.1533 20.8224 96.6732 21.4702C97.1931 22.1094 97.7385 22.7741 98.3096 23.4645L110.467 38H106.146L96.0851 26.1747C95.2414 25.1776 94.4573 24.2401 93.7329 23.3622C93.0084 22.4759 92.4204 21.581 91.9687 20.6776C91.5255 19.7656 91.3039 18.7812 91.3039 17.7244C91.3039 16.5227 91.5766 15.4574 92.1221 14.5284C92.676 13.5909 93.4473 12.858 94.436 12.3295C95.4246 11.8011 96.5837 11.5369 97.9133 11.5369C99.2598 11.5369 100.415 11.8011 101.378 12.3295C102.349 12.8494 103.095 13.544 103.615 14.4134C104.143 15.2741 104.408 16.2159 104.408 17.2386C104.408 18.483 104.096 19.5824 103.474 20.5369C102.861 21.483 102.013 22.3523 100.93 23.1449L95.676 27.0185C94.6533 27.7685 93.9417 28.5099 93.5411 29.2429C93.1491 29.9673 92.953 30.5341 92.953 30.9432C92.953 31.6932 93.1448 32.3878 93.5283 33.027C93.9204 33.6662 94.4658 34.1776 95.1647 34.5611C95.8721 34.9446 96.6988 35.1364 97.6448 35.1364C98.6164 35.1364 99.5624 34.9276 100.483 34.5099C101.412 34.0838 102.251 33.4744 103.001 32.6818C103.76 31.8892 104.361 30.9389 104.804 29.831C105.247 28.723 105.469 27.483 105.469 26.1108H108.92C108.92 27.7983 108.729 29.2259 108.345 30.3935C107.962 31.5526 107.497 32.4986 106.952 33.2315C106.415 33.956 105.908 34.5227 105.43 34.9318C105.277 35.0682 105.132 35.2045 104.996 35.3409C104.859 35.4773 104.714 35.6136 104.561 35.75C103.675 36.6449 102.601 37.3054 101.339 37.7315C100.087 38.1577 98.8508 38.3707 97.632 38.3707ZM121.525 38H113.049V11.8182H121.793C124.358 11.8182 126.562 12.3423 128.402 13.3906C130.243 14.4304 131.654 15.9261 132.634 17.8778C133.623 19.821 134.117 22.152 134.117 24.8707C134.117 27.598 133.618 29.9418 132.621 31.902C131.633 33.8622 130.201 35.3707 128.326 36.4276C126.451 37.4759 124.184 38 121.525 38ZM116.999 34.5483H121.307C123.302 34.5483 124.959 34.1733 126.28 33.4233C127.601 32.6648 128.59 31.5696 129.246 30.1378C129.902 28.6974 130.231 26.9418 130.231 24.8707C130.231 22.8168 129.902 21.0739 129.246 19.642C128.598 18.2102 127.631 17.1236 126.344 16.3821C125.057 15.6406 123.459 15.2699 121.55 15.2699H116.999V34.5483ZM161.396 18.696C161.26 17.4858 160.698 16.5483 159.709 15.8835C158.72 15.2102 157.476 14.8736 155.976 14.8736C154.902 14.8736 153.973 15.044 153.189 15.3849C152.405 15.7173 151.796 16.1776 151.361 16.7656C150.935 17.3452 150.722 18.0057 150.722 18.7472C150.722 19.3693 150.867 19.9062 151.156 20.358C151.455 20.8097 151.842 21.1889 152.32 21.4957C152.805 21.794 153.325 22.0455 153.879 22.25C154.433 22.446 154.966 22.608 155.477 22.7358L158.034 23.4006C158.869 23.6051 159.726 23.8821 160.604 24.2315C161.482 24.581 162.296 25.0412 163.046 25.6122C163.796 26.1832 164.401 26.8906 164.861 27.7344C165.33 28.5781 165.564 29.5881 165.564 30.7642C165.564 32.2472 165.18 33.5639 164.413 34.7145C163.655 35.8651 162.551 36.7727 161.102 37.4375C159.662 38.1023 157.919 38.4347 155.874 38.4347C153.913 38.4347 152.217 38.1236 150.786 37.5014C149.354 36.8793 148.233 35.9972 147.423 34.8551C146.614 33.7045 146.166 32.3409 146.081 30.7642H150.044C150.121 31.7102 150.428 32.4986 150.965 33.1293C151.51 33.7514 152.205 34.2159 153.048 34.5227C153.901 34.821 154.834 34.9702 155.848 34.9702C156.965 34.9702 157.957 34.7955 158.827 34.446C159.705 34.0881 160.395 33.5937 160.898 32.9631C161.401 32.3239 161.652 31.5781 161.652 30.7259C161.652 29.9503 161.43 29.3153 160.987 28.821C160.553 28.3267 159.96 27.9176 159.21 27.5938C158.469 27.2699 157.629 26.9844 156.692 26.7372L153.598 25.8935C151.501 25.3224 149.84 24.483 148.612 23.375C147.394 22.267 146.784 20.8011 146.784 18.9773C146.784 17.4687 147.193 16.152 148.011 15.027C148.83 13.902 149.938 13.0284 151.335 12.4062C152.733 11.7756 154.31 11.4602 156.065 11.4602C157.838 11.4602 159.402 11.7713 160.757 12.3935C162.121 13.0156 163.195 13.8722 163.979 14.9631C164.763 16.0455 165.172 17.2898 165.206 18.696H161.396ZM177.529 38.3963C175.688 38.3963 174.082 37.9744 172.709 37.1307C171.337 36.2869 170.272 35.1065 169.513 33.5895C168.755 32.0724 168.376 30.2997 168.376 28.2713C168.376 26.2344 168.755 24.4531 169.513 22.9276C170.272 21.402 171.337 20.2173 172.709 19.3736C174.082 18.5298 175.688 18.108 177.529 18.108C179.37 18.108 180.976 18.5298 182.349 19.3736C183.721 20.2173 184.786 21.402 185.545 22.9276C186.303 24.4531 186.682 26.2344 186.682 28.2713C186.682 30.2997 186.303 32.0724 185.545 33.5895C184.786 35.1065 183.721 36.2869 182.349 37.1307C180.976 37.9744 179.37 38.3963 177.529 38.3963ZM177.542 35.1875C178.735 35.1875 179.724 34.8722 180.508 34.2415C181.292 33.6108 181.871 32.7713 182.246 31.723C182.63 30.6747 182.822 29.5199 182.822 28.2585C182.822 27.0057 182.63 25.8551 182.246 24.8068C181.871 23.75 181.292 22.902 180.508 22.2628C179.724 21.6236 178.735 21.304 177.542 21.304C176.34 21.304 175.343 21.6236 174.55 22.2628C173.766 22.902 173.182 23.75 172.799 24.8068C172.424 25.8551 172.236 27.0057 172.236 28.2585C172.236 29.5199 172.424 30.6747 172.799 31.723C173.182 32.7713 173.766 33.6108 174.55 34.2415C175.343 34.8722 176.34 35.1875 177.542 35.1875ZM194.052 11.8182V38H190.229V11.8182H194.052ZM210.913 29.8565V18.3636H214.748V38H210.99V34.5994H210.785C210.333 35.6477 209.609 36.5213 208.612 37.2202C207.623 37.9105 206.392 38.2557 204.917 38.2557C203.656 38.2557 202.539 37.9787 201.568 37.4247C200.605 36.8622 199.846 36.0312 199.292 34.9318C198.747 33.8324 198.474 32.473 198.474 30.8537V18.3636H202.296V30.3935C202.296 31.7315 202.667 32.7969 203.409 33.5895C204.15 34.3821 205.113 34.7784 206.298 34.7784C207.014 34.7784 207.725 34.5994 208.433 34.2415C209.149 33.8835 209.741 33.3423 210.21 32.6179C210.687 31.8935 210.921 30.973 210.913 29.8565ZM228.33 18.3636V21.4318H217.604V18.3636H228.33ZM220.481 13.6591H224.303V32.2344C224.303 32.9759 224.414 33.5341 224.636 33.9091C224.857 34.2756 225.143 34.527 225.492 34.6634C225.85 34.7912 226.238 34.8551 226.656 34.8551C226.962 34.8551 227.231 34.8338 227.461 34.7912C227.691 34.7486 227.87 34.7145 227.998 34.6889L228.688 37.8466C228.467 37.9318 228.151 38.017 227.742 38.1023C227.333 38.196 226.822 38.2472 226.208 38.2557C225.202 38.2727 224.265 38.0938 223.396 37.7188C222.526 37.3438 221.823 36.7642 221.286 35.9801C220.749 35.196 220.481 34.2116 220.481 33.027V13.6591ZM231.839 38V18.3636H235.661V38H231.839ZM233.769 15.3338C233.104 15.3338 232.533 15.1122 232.056 14.669C231.587 14.2173 231.353 13.6804 231.353 13.0582C231.353 12.4276 231.587 11.8906 232.056 11.4474C232.533 10.9957 233.104 10.7699 233.769 10.7699C234.434 10.7699 235.001 10.9957 235.469 11.4474C235.947 11.8906 236.185 12.4276 236.185 13.0582C236.185 13.6804 235.947 14.2173 235.469 14.669C235.001 15.1122 234.434 15.3338 233.769 15.3338ZM248.355 38.3963C246.514 38.3963 244.907 37.9744 243.535 37.1307C242.163 36.2869 241.098 35.1065 240.339 33.5895C239.581 32.0724 239.201 30.2997 239.201 28.2713C239.201 26.2344 239.581 24.4531 240.339 22.9276C241.098 21.402 242.163 20.2173 243.535 19.3736C244.907 18.5298 246.514 18.108 248.355 18.108C250.196 18.108 251.802 18.5298 253.174 19.3736C254.547 20.2173 255.612 21.402 256.37 22.9276C257.129 24.4531 257.508 26.2344 257.508 28.2713C257.508 30.2997 257.129 32.0724 256.37 33.5895C255.612 35.1065 254.547 36.2869 253.174 37.1307C251.802 37.9744 250.196 38.3963 248.355 38.3963ZM248.368 35.1875C249.561 35.1875 250.549 34.8722 251.333 34.2415C252.118 33.6108 252.697 32.7713 253.072 31.723C253.456 30.6747 253.647 29.5199 253.647 28.2585C253.647 27.0057 253.456 25.8551 253.072 24.8068C252.697 23.75 252.118 22.902 251.333 22.2628C250.549 21.6236 249.561 21.304 248.368 21.304C247.166 21.304 246.169 21.6236 245.376 22.2628C244.592 22.902 244.008 23.75 243.625 24.8068C243.25 25.8551 243.062 27.0057 243.062 28.2585C243.062 29.5199 243.25 30.6747 243.625 31.723C244.008 32.7713 244.592 33.6108 245.376 34.2415C246.169 34.8722 247.166 35.1875 248.368 35.1875ZM264.877 26.3409V38H261.055V18.3636H264.724V21.5597H264.967C265.419 20.5199 266.126 19.6847 267.089 19.054C268.061 18.4233 269.284 18.108 270.758 18.108C272.096 18.108 273.268 18.3892 274.274 18.9517C275.279 19.5057 276.059 20.3324 276.613 21.4318C277.167 22.5312 277.444 23.8906 277.444 25.5099V38H273.622V25.9702C273.622 24.5469 273.251 23.4347 272.509 22.6335C271.768 21.8239 270.749 21.419 269.454 21.419C268.568 21.419 267.779 21.6108 267.089 21.9943C266.407 22.3778 265.866 22.9403 265.465 23.6818C265.073 24.4148 264.877 25.3011 264.877 26.3409ZM296.565 23.1577L293.101 23.7713C292.956 23.3281 292.726 22.9062 292.41 22.5057C292.103 22.1051 291.686 21.777 291.157 21.5213C290.629 21.2656 289.968 21.1378 289.176 21.1378C288.093 21.1378 287.19 21.3807 286.466 21.8665C285.741 22.3437 285.379 22.9616 285.379 23.7202C285.379 24.3764 285.622 24.9048 286.108 25.3054C286.593 25.706 287.377 26.0341 288.46 26.2898L291.579 27.0057C293.386 27.4233 294.733 28.0668 295.619 28.9361C296.505 29.8054 296.949 30.9347 296.949 32.3239C296.949 33.5 296.608 34.5483 295.926 35.4688C295.252 36.3807 294.311 37.0966 293.101 37.6165C291.899 38.1364 290.505 38.3963 288.92 38.3963C286.721 38.3963 284.927 37.9276 283.538 36.9901C282.149 36.044 281.297 34.7017 280.981 32.9631L284.676 32.4006C284.906 33.3636 285.379 34.0923 286.095 34.5866C286.811 35.0724 287.744 35.3153 288.895 35.3153C290.147 35.3153 291.149 35.0554 291.899 34.5355C292.649 34.0071 293.024 33.3636 293.024 32.6051C293.024 31.9915 292.794 31.4759 292.333 31.0582C291.882 30.6406 291.187 30.3253 290.25 30.1122L286.926 29.3835C285.093 28.9659 283.738 28.3011 282.86 27.3892C281.991 26.4773 281.556 25.3224 281.556 23.9247C281.556 22.7656 281.88 21.7514 282.528 20.8821C283.176 20.0128 284.071 19.3352 285.213 18.8494C286.355 18.3551 287.663 18.108 289.137 18.108C291.26 18.108 292.93 18.5682 294.149 19.4886C295.368 20.4006 296.173 21.6236 296.565 23.1577Z" fill="white"/>
</svg>
